<svg width="32" height="35" viewBox="0 0 32 35" fill="none" xmlns="http://www.w3.org/2000/svg">
<g clip-path="url(#clip0_6115_21)" filter="url(#filter0_d_6115_21)">
<path d="M26.7839 8.27751C27.0514 7.41476 27.1372 6.50595 27.0359 5.60838C26.9346 4.71082 26.6484 3.84398 26.1955 3.06251C26.1187 2.92947 26.0082 2.81899 25.8751 2.74219C25.7421 2.66539 25.5911 2.62498 25.4375 2.62501C24.4183 2.62288 23.4128 2.85915 22.5012 3.31493C21.5896 3.77072 20.7973 4.4334 20.1875 5.25001H17.5625C16.9527 4.4334 16.1604 3.77072 15.2488 3.31493C14.3372 2.85915 13.3317 2.62288 12.3125 2.62501C12.1589 2.62498 12.0079 2.66539 11.8749 2.74219C11.7418 2.81899 11.6313 2.92947 11.5545 3.06251C11.1016 3.84398 10.8154 4.71082 10.7141 5.60838C10.6128 6.50595 10.6986 7.41476 10.9661 8.27751C10.4255 9.22111 10.1359 10.2876 10.125 11.375V12.25C10.1268 13.7305 10.6643 15.1604 11.6381 16.2755C12.6119 17.3907 13.9564 18.1158 15.4231 18.317C14.8244 19.0832 14.4994 20.0277 14.5 21V21.875H11.875C11.1788 21.875 10.5111 21.5985 10.0188 21.1062C9.52656 20.6139 9.25 19.9462 9.25 19.25C9.25 18.6755 9.13684 18.1066 8.91697 17.5758C8.69711 17.045 8.37485 16.5627 7.96859 16.1564C7.56234 15.7502 7.08004 15.4279 6.54924 15.208C6.01844 14.9882 5.44953 14.875 4.875 14.875C4.64294 14.875 4.42038 14.9672 4.25628 15.1313C4.09219 15.2954 4 15.5179 4 15.75C4 15.9821 4.09219 16.2046 4.25628 16.3687C4.42038 16.5328 4.64294 16.625 4.875 16.625C5.57119 16.625 6.23887 16.9016 6.73116 17.3939C7.22344 17.8861 7.5 18.5538 7.5 19.25C7.5 20.4103 7.96094 21.5231 8.78141 22.3436C9.60188 23.1641 10.7147 23.625 11.875 23.625H14.5V25.375C14.5 25.6071 14.5922 25.8296 14.7563 25.9937C14.9204 26.1578 15.1429 26.25 15.375 26.25C15.6071 26.25 15.8296 26.1578 15.9937 25.9937C16.1578 25.8296 16.25 25.6071 16.25 25.375V21C16.25 20.3038 16.5266 19.6361 17.0188 19.1439C17.5111 18.6516 18.1788 18.375 18.875 18.375C19.5712 18.375 20.2389 18.6516 20.7312 19.1439C21.2234 19.6361 21.5 20.3038 21.5 21V25.375C21.5 25.6071 21.5922 25.8296 21.7563 25.9937C21.9204 26.1578 22.1429 26.25 22.375 26.25C22.6071 26.25 22.8296 26.1578 22.9937 25.9937C23.1578 25.8296 23.25 25.6071 23.25 25.375V21C23.2506 20.0277 22.9256 19.0832 22.3269 18.317C23.7936 18.1158 25.1381 17.3907 26.1119 16.2755C27.0857 15.1604 27.6232 13.7305 27.625 12.25V11.375C27.6141 10.2876 27.3245 9.22111 26.7839 8.27751ZM25.875 12.25C25.875 13.4103 25.4141 14.5231 24.5936 15.3436C23.7731 16.1641 22.6603 16.625 21.5 16.625H16.25C15.0897 16.625 13.9769 16.1641 13.1564 15.3436C12.3359 14.5231 11.875 13.4103 11.875 12.25V11.375C11.8857 10.5 12.1477 9.64658 12.6297 8.91626C12.7195 8.79783 12.7777 8.65846 12.7988 8.5113C12.8198 8.36414 12.803 8.21404 12.75 8.07517C12.5221 7.48739 12.4124 6.8604 12.4272 6.23015C12.4421 5.5999 12.5811 4.97877 12.8364 4.40236C13.5525 4.47939 14.2421 4.71661 14.854 5.09642C15.466 5.47623 15.9846 5.9889 16.3714 6.59642C16.4502 6.71969 16.5587 6.82123 16.6869 6.89173C16.8151 6.96224 16.959 6.99947 17.1053 7.00001H20.6436C20.7905 7.00002 20.935 6.96305 21.0638 6.89252C21.1926 6.82199 21.3017 6.72016 21.3808 6.59642C21.7676 5.98885 22.2862 5.47614 22.8981 5.09632C23.5101 4.7165 24.1997 4.47932 24.9158 4.40236C25.1707 4.97892 25.3094 5.60012 25.3239 6.23037C25.3383 6.86062 25.2283 7.48753 25 8.07517C24.9471 8.21272 24.9294 8.36129 24.9485 8.50741C24.9676 8.65353 25.0229 8.79256 25.1094 8.91189C25.5962 9.64221 25.862 10.4974 25.875 11.375V12.25Z" fill="#878EA1"/>
</g>
<defs>
<filter id="filter0_d_6115_21" x="0" y="0" width="36" height="36" filterUnits="userSpaceOnUse" color-interpolation-filters="sRGB">
<feFlood flood-opacity="0" result="BackgroundImageFix"/>
<feColorMatrix in="SourceAlpha" type="matrix" values="0 0 0 0 0 0 0 0 0 0 0 0 0 0 0 0 0 0 127 0" result="hardAlpha"/>
<feOffset dy="4"/>
<feGaussianBlur stdDeviation="2"/>
<feComposite in2="hardAlpha" operator="out"/>
<feColorMatrix type="matrix" values="0 0 0 0 0 0 0 0 0 0 0 0 0 0 0 0 0 0 0.25 0"/>
<feBlend mode="normal" in2="BackgroundImageFix" result="effect1_dropShadow_6115_21"/>
<feBlend mode="normal" in="SourceGraphic" in2="effect1_dropShadow_6115_21" result="shape"/>
</filter>
<clipPath id="clip0_6115_21">
<rect width="28" height="28" fill="white" transform="translate(4)"/>
</clipPath>
</defs>
</svg>
